<svg id="visual" viewBox="0 0 900 600" width="900" height="600" xmlns="http://www.w3.org/2000/svg" xmlns:xlink="http://www.w3.org/1999/xlink" version="1.1"><path d="M0 421L21.5 422.2C43 423.3 86 425.7 128.8 416.7C171.7 407.7 214.3 387.3 257.2 385.8C300 384.3 343 401.7 385.8 412.3C428.7 423 471.3 427 514.2 425.2C557 423.3 600 415.7 642.8 418.5C685.7 421.3 728.3 434.7 771.2 441.2C814 447.7 857 447.3 878.5 447.2L900 447L900 601L878.5 601C857 601 814 601 771.2 601C728.3 601 685.7 601 642.8 601C600 601 557 601 514.2 601C471.3 601 428.7 601 385.8 601C343 601 300 601 257.2 601C214.3 601 171.7 601 128.8 601C86 601 43 601 21.5 601L0 601Z" fill="#fa7268"></path><path d="M0 433L21.5 438.2C43 443.3 86 453.7 128.8 453.7C171.7 453.7 214.3 443.3 257.2 444.7C300 446 343 459 385.8 456.5C428.7 454 471.3 436 514.2 433.7C557 431.3 600 444.7 642.8 447.2C685.7 449.7 728.3 441.3 771.2 436.3C814 431.3 857 429.7 878.5 428.8L900 428L900 601L878.5 601C857 601 814 601 771.2 601C728.3 601 685.7 601 642.8 601C600 601 557 601 514.2 601C471.3 601 428.7 601 385.8 601C343 601 300 601 257.2 601C214.3 601 171.7 601 128.8 601C86 601 43 601 21.5 601L0 601Z" fill="#ef5f67"></path><path d="M0 481L21.5 482.8C43 484.7 86 488.3 128.8 485.2C171.7 482 214.3 472 257.2 463.3C300 454.7 343 447.3 385.8 444.2C428.7 441 471.3 442 514.2 451.3C557 460.7 600 478.3 642.8 478.5C685.7 478.7 728.3 461.3 771.2 463.7C814 466 857 488 878.5 499L900 510L900 601L878.5 601C857 601 814 601 771.2 601C728.3 601 685.7 601 642.8 601C600 601 557 601 514.2 601C471.3 601 428.7 601 385.8 601C343 601 300 601 257.2 601C214.3 601 171.7 601 128.8 601C86 601 43 601 21.5 601L0 601Z" fill="#e34c67"></path><path d="M0 534L21.5 529.8C43 525.7 86 517.3 128.8 511.7C171.7 506 214.3 503 257.2 499.2C300 495.3 343 490.7 385.8 488C428.7 485.3 471.3 484.7 514.2 488.3C557 492 600 500 642.8 506.8C685.7 513.7 728.3 519.3 771.2 524.3C814 529.3 857 533.7 878.5 535.8L900 538L900 601L878.5 601C857 601 814 601 771.2 601C728.3 601 685.7 601 642.8 601C600 601 557 601 514.2 601C471.3 601 428.7 601 385.8 601C343 601 300 601 257.2 601C214.3 601 171.7 601 128.8 601C86 601 43 601 21.5 601L0 601Z" fill="#d53867"></path><path d="M0 543L21.5 542C43 541 86 539 128.8 543.3C171.7 547.7 214.3 558.3 257.2 559.8C300 561.3 343 553.7 385.8 550.5C428.7 547.3 471.3 548.7 514.2 553.3C557 558 600 566 642.8 569C685.7 572 728.3 570 771.2 563C814 556 857 544 878.5 538L900 532L900 601L878.5 601C857 601 814 601 771.2 601C728.3 601 685.7 601 642.8 601C600 601 557 601 514.2 601C471.3 601 428.7 601 385.8 601C343 601 300 601 257.2 601C214.3 601 171.7 601 128.8 601C86 601 43 601 21.5 601L0 601Z" fill="#c62368"></path></svg>